{"title":"Limitless 2011 TS READNFO XViD v2 - IMAGiNE","uid":6257613,"size":1538457378,"categoryP":"video","categoryS":"movies","magnet":"?xt=urn:btih:a1cab49c651a97dadca220acabaa53517abfa0d8&amp;dn=Limitless+2011+TS+READNFO+XViD+v2+-+IMAGiNE&amp;tr=udp%3A%2F%2Ftracker.openbittorrent.com%3A80&amp;tr=udp%3A%2F%2Fopen.demonii.com%3A1337&amp;tr=udp%3A%2F%2Ftracker.coppersurfer.tk%3A6969&amp;tr=udp%3A%2F%2Fexodus.desync.com%3A6969","seeders":0,"leechers":0,"uploader":"DibyaTPB","files":105,"time":1300634761,"description":" &lt;a href=&quot; http://www.thedesiadda.com/&quot; rel=&quot;nofollow&quot; target=&quot;_NEW&quot;&gt; http://www.thedesiadda.com/&lt;/a&gt;\n\n*********** ****    ****      ***      ******** *********** ****    *** **********\n          *+*     +*+*+* *+*+*+   *+* *+*   *+*    *+*    *+*     *+*+*   *+* *+*        \n          +*+     +*+ +*+*+ +*+  +*+   +*+  +*+           +*+     *+*+*+  +*+ +*+        \n          +$+     +$+  +*+  +$+ +$++*++$++* *$*           +$+     +$+ +*+ +$+ +$++*++$  \n          +$+     +$+       +$+ +$+     +$+ +$+   +$+$    +$+     +$+  +$+$+$ +$+        \n          $+$     $+$       $+$ $+$     $+$ $+$    $+$    $+$     $+$   $+$+$ $+$        \n      $$$$$$$$$$$ $$$       $$$ $$$     $$$  $$$$$$$$ $$$$$$$$$$$ $$$    $$$$ $$$$$$$$$$    \n                                               \n\n\n\n                          Another Fine Release Brought to you from - IMAGiNE                  \n                                               \n\n********************************************************************************************************************                                \n                           Limitless 2011 TS READNFO XViD v2 - IMAGiNE\n********************************************************************************************************************\n\nRipper ...........: IMAGiNE                                        IMDB Rating.......:7.1/10                            \nVideo Codec.......: XVID                                         Release Date......:19/03/11\nAudio Codec.......:MP3                                           Theatre Date......:18/03/11\nAudio Bitrate.....:128                                              Runtime.......:1h 31mn\nSubtitles.........:NIL                                                 Language..........:ENGLISH\nResolution...... 720 x 288                                      IMDb URL..........:http://www.imdb.com/title/tt1219289/\n\n\nDETAILS:\n\nVideo\nID                               : 0\nFormat                           : MPEG-4 Visual\nFormat profile                   : Advanced Simple@L5\nFormat settings, BVOP            : Yes\nFormat settings, QPel            : No\nFormat settings, GMC             : No warppoints\nFormat settings, Matrix          : Default (MPEG)\nMuxing mode                      : Packed bitstream\nCodec ID                         : XVID\nCodec ID/Hint                    : XviD\nDuration                         : 1h 31mn\nBit rate                         : 1 960 Kbps\nWidth                            : 720 pixels\nHeight                           : 288 pixels\nDisplay aspect ratio             : 2.500\nFrame rate                       : 25.000 fps\nResolution                       : 24 bits\nColorimetry                      : 4:2:0\nScan type                        : Progressive\nBits/(Pixel*Frame)               : 0.378\nStream size                      : 1.25 GiB (93%)\nWriting library                  : XviD 61\n\nAudio\nID                               : 1\nFormat                           : MPEG Audio\nFormat version                   : Version 1\nFormat profile                   : Layer 3\nCodec ID                         : 55\nCodec ID/Hint                    : MP3\nDuration                         : 1h 31mn\nBit rate mode                    : Constant\nBit rate                         : 128 Kbps\nChannel(s)                       : 2 channels\nSampling rate                    : 44.1 KHz\nResolution                       : 16 bits\nVideo delay                      : 15ms\nStream size                      : 83.9 MiB (6%)\nAlignment                        : Split accross interleaves\nInterleave, duration             : 40 ms (1.00 video frame)\nInterleave, preload duration     : 500 ms\n\n\n\nSOURCES:\n\nVIDEO:Oblasti.tmy.2011.D.TS.ELEKTRI4KA ................. Thanks\nAUDIO:Thanks m8ty\n\nNOTES:\n\nIMAGiNE bringing you another release.......... Limitless 2011\n\nHere we go we a half decent TS of this release.The video isn't the strongest but is more than watchable\nunless you only want really high Q.\nThe video source had issues with the normal stuff,colouring,brightness etc....so we made a script to fix it the\nbest we could.\nAudio was sweet .....just needed to be synced,but was a pain to do,but go there in the end.\nNow the video has a to chunks of video missing but only 1x 4 secs and 1 x3 secs so not much .....however we also\nremoved 2mins 26secs off the start due to no audio (long story ) .....we were going to leave it with the russian audio\nbut didn't see much point as 99% of us wouldn't have a clue what was being said.....\nBut in all honestly you would never guess it was missing becasuse of the way it starts ......trust me,still worth the look.\n\nEnjoy folks\n\nSCREENS:\n\nGREETS:\n\nFLAWL3SS,ViSiON,Rx,ELEKTRI4KA,Serenity,Autotron,CiNEDUB,CRYS,T0XiCiNK ,\nAnd to all the other p2p grps past and present\n\nLooking for these,syncers,cammers,audio,silver supplier.....Have anything to offer????......\nContact us &lt;a class=&quot;__cf_email__&quot; href=&quot;/cdn-cgi/l/email-protection&quot; data-cfemail=&quot;cda4a0acaaa4a3a8aabfa2b8bd8da5b8bea5a0aca4a1e3aea2a0&quot;&gt;[email&amp;#160;protected]&lt;/a&gt;&lt;script cf-hash='f9e31' type=&quot;text/javascript&quot;&gt;\n/* &lt;![CDATA[ */!function(){try{var t=&quot;currentScript&quot;in document?document.currentScript:function(){for(var t=document.getElementsByTagName(&quot;script&quot;),e=t.length;e--;)if(t[e].getAttribute(&quot;cf-hash&quot;))return t[e]}();if(t&amp;&amp;t.previousSibling){var e,r,n,i,c=t.previousSibling,a=c.getAttribute(&quot;data-cfemail&quot;);if(a){for(e=&quot;&quot;,r=parseInt(a.substr(0,2),16),n=2;a.length-n;n+=2)i=parseInt(a.substr(n,2),16)^r,e+=String.fromCharCode(i);e=document.createTextNode(e),c.parentNode.replaceChild(e,c)}}}catch(u){}}();/* ]]&gt; */&lt;/script&gt;\n","torrent":{"xt":"urn:btih:a1cab49c651a97dadca220acabaa53517abfa0d8","amp;dn":"Limitless+2011+TS+READNFO+XViD+v2+-+IMAGiNE","amp;tr":["udp%3A%2F%2Ftracker.openbittorrent.com%3A80","udp%3A%2F%2Fopen.demonii.com%3A1337","udp%3A%2F%2Ftracker.coppersurfer.tk%3A6969","udp%3A%2F%2Fexodus.desync.com%3A6969"],"infoHash":"a1cab49c651a97dadca220acabaa53517abfa0d8","infoHashBuffer":{"type":"Buffer","data":[161,202,180,156,101,26,151,218,220,162,32,172,171,170,83,81,122,191,160,216]},"announce":[],"urlList":[]}}